<svg viewBox="0 0 64 64" xmlns="http://www.w3.org/2000/svg" id="Cherries--Streamline-Emoji" height="64" width="64">
  <desc>
    Cherries Streamline Emoji: https://streamlinehq.com
  </desc>
  <path d="M12.36 60.53333333333333a19.866666666666667 2.1333333333333333 0 1 0 39.733333333333334 0 19.866666666666667 2.1333333333333333 0 1 0 -39.733333333333334 0Z" fill="#45413c" opacity=".15" stroke-width="1"></path>
  <path d="M35.44 41.33333333333333a12.653333333333332 12.653333333333332 0 0 1 -15.36 10.239999999999998 12.653333333333332 12.653333333333332 0 0 1 -10.239999999999998 -15.373333333333331c1.48 -7.3999999999999995 9.64 -11.919999999999998 14.893333333333333 -7.92 5.746666666666666 -1.5066666666666664 12.186666666666667 5.640000000000001 10.706666666666665 13.053333333333331Z" fill="#ff6242" stroke-width="1"></path>
  <path d="M9.84 40c1.48 -7.386666666666667 9.626666666666665 -9.733333333333333 14.893333333333333 -7.906666666666666s9.773333333333333 3.24 10.76 8.906666666666666c1.2133333333333334 -7.266666666666667 -5.093333333333333 -14.173333333333334 -10.76 -12.693333333333332 -5.253333333333333 -4 -13.413333333333334 0.52 -14.893333333333333 7.92a14.053333333333331 14.053333333333331 0 0 0 -0.13333333333333333 4.706666666666666c0.039999999999999994 -0.3333333333333333 0.07999999999999999 -0.6399999999999999 0.13333333333333333 -0.9333333333333332Z" fill="#ff866e" stroke-width="1"></path>
  <path d="M35.44 41.33333333333333a12.653333333333332 12.653333333333332 0 0 1 -15.36 10.239999999999998 12.653333333333332 12.653333333333332 0 0 1 -10.239999999999998 -15.373333333333331c1.48 -7.3999999999999995 9.64 -11.919999999999998 14.893333333333333 -7.92 5.746666666666666 -1.5066666666666664 12.186666666666667 5.640000000000001 10.706666666666665 13.053333333333331Z" fill="none" stroke="#45413c" stroke-linejoin="round" stroke-width="1"></path>
  <path d="M51.02666666666667 46.74666666666667a12.653333333333332 12.653333333333332 0 0 1 -13.04 13.053333333333331 12.653333333333332 12.653333333333332 0 0 1 -13.053333333333331 -13.053333333333331c0 -7.533333333333333 7.119999999999999 -13.573333333333332 13.053333333333331 -10.666666666666666 5.333333333333333 -2.5999999999999996 13.04 3.1333333333333333 13.04 10.666666666666666Z" fill="#ff6242" stroke-width="1"></path>
  <path d="M37.986666666666665 40c4.346666666666666 0 11.76 2.253333333333333 12.879999999999999 8.853333333333332a16.293333333333333 16.293333333333333 0 0 0 0.15999999999999998 -2.16c0 -7.533333333333333 -7.706666666666667 -13.333333333333332 -13.04 -10.666666666666666 -5.933333333333334 -2.893333333333333 -13.053333333333331 3.1466666666666665 -13.053333333333331 10.666666666666666a13.493333333333332 13.493333333333332 0 0 0 0.15999999999999998 2.1066666666666665c1.0533333333333332 -6.56 8.533333333333333 -8.799999999999999 12.893333333333333 -8.799999999999999Z" fill="#ff866e" stroke-width="1"></path>
  <path d="M51.02666666666667 46.74666666666667a12.653333333333332 12.653333333333332 0 0 1 -13.04 13.053333333333331 12.653333333333332 12.653333333333332 0 0 1 -13.053333333333331 -13.053333333333331c0 -7.533333333333333 7.119999999999999 -13.573333333333332 13.053333333333331 -10.666666666666666 5.333333333333333 -2.5999999999999996 13.04 3.1333333333333333 13.04 10.666666666666666Z" fill="none" stroke="#45413c" stroke-linejoin="round" stroke-width="1"></path>
  <path d="M24.733333333333334 28.28s2.6666666666666665 -5.453333333333333 12.653333333333332 -10.746666666666666a25.253333333333334 25.253333333333334 0 0 1 16 -2.373333333333333" fill="none" stroke="#45413c" stroke-linecap="round" stroke-linejoin="round" stroke-width="1"></path>
  <path d="M37.986666666666665 36.06666666666666s0.9866666666666666 -14.666666666666666 15.413333333333334 -20.906666666666666" fill="none" stroke="#45413c" stroke-linecap="round" stroke-linejoin="round" stroke-width="1"></path>
  <path d="M45.06666666666666 4.413333333333333a18.666666666666664 18.666666666666664 0 0 0 -13.333333333333332 -2.253333333333333A1.3333333333333333 1.3333333333333333 0 0 0 30.733333333333334 4a18.666666666666664 18.666666666666664 0 0 0 8.706666666666667 10.32 18.346666666666664 18.346666666666664 0 0 0 14.066666666666666 2.04 0.6533333333333333 0.6533333333333333 0 0 0 0.4666666666666666 -0.8266666666666667 18.32 18.32 0 0 0 -8.906666666666666 -11.12Z" fill="#6dd627" stroke-width="1"></path>
  <path d="m31.666666666666664 6.226666666666667 0.09333333333333334 0a18.546666666666667 18.546666666666667 0 0 1 13.333333333333332 2.253333333333333 19.106666666666666 19.106666666666666 0 0 1 7.773333333333333 8c0.22666666666666668 0 0.45333333333333337 -0.09333333333333334 0.6666666666666666 -0.15999999999999998a0.6533333333333333 0.6533333333333333 0 0 0 0.4666666666666666 -0.8266666666666667 18.32 18.32 0 0 0 -8.933333333333334 -11.08 18.666666666666664 18.666666666666664 0 0 0 -13.333333333333332 -2.253333333333333A1.3333333333333333 1.3333333333333333 0 0 0 30.733333333333334 4a15.626666666666667 15.626666666666667 0 0 0 0.9333333333333332 2.2266666666666666Z" fill="#9ceb60" stroke-width="1"></path>
  <path d="M45.06666666666666 4.413333333333333a18.666666666666664 18.666666666666664 0 0 0 -13.333333333333332 -2.253333333333333A1.3333333333333333 1.3333333333333333 0 0 0 30.733333333333334 4a18.666666666666664 18.666666666666664 0 0 0 8.706666666666667 10.32 18.346666666666664 18.346666666666664 0 0 0 14.066666666666666 2.04 0.6533333333333333 0.6533333333333333 0 0 0 0.4666666666666666 -0.8266666666666667 18.32 18.32 0 0 0 -8.906666666666666 -11.12Z" fill="none" stroke="#45413c" stroke-linecap="round" stroke-linejoin="round" stroke-width="1"></path>
</svg>