<svg viewBox="0 0 64 64" xmlns="http://www.w3.org/2000/svg" id="Watermelon-2--Streamline-Emoji" height="64" width="64">
  <desc>
    Watermelon 2 Streamline Emoji: https://streamlinehq.com
  </desc>
  <path d="M14.413333333333334 58a18 2 0 1 0 36 0 18 2 0 1 0 -36 0Z" fill="#45413c" opacity=".15" stroke-width="1"></path>
  <path d="m55.05333333333333 34.44 -6.266666666666667 -1.5733333333333333a6.3999999999999995 6.3999999999999995 0 0 1 -6.306666666666667 1.96 6.346666666666666 6.346666666666666 0 0 1 -10.093333333333334 -1.9066666666666665 6.253333333333334 6.253333333333334 0 0 1 -1.48 -0.18666666666666668 6.346666666666666 6.346666666666666 0 0 1 -4.773333333333333 -5.586666666666667L3.6933333333333334 21.479999999999997a2.12 2.12 0 0 0 -2.6666666666666665 1.6933333333333334 28.706666666666667 28.706666666666667 0 0 0 55.53333333333333 14.013333333333332 2.1466666666666665 2.1466666666666665 0 0 0 -1.5066666666666664 -2.7466666666666666Z" fill="#9ceb60" stroke-width="1"></path>
  <path d="M55.42666666666666 40c0.41333333333333333 -0.9066666666666667 0.7999999999999999 -1.853333333333333 1.1333333333333333 -2.8266666666666667a2.1466666666666665 2.1466666666666665 0 0 0 -1.5066666666666664 -2.7466666666666666l-6.266666666666667 -1.5733333333333333a6.3999999999999995 6.3999999999999995 0 0 1 -6.306666666666667 1.96 6.186666666666666 6.186666666666666 0 0 1 -2.253333333333333 1.3333333333333333Z" fill="#c8ffa1" stroke-width="1"></path>
  <path d="M33.42666666666666 34.46666666666667a6.666666666666666 6.666666666666666 0 0 1 -1.04 -1.5466666666666664 6.253333333333334 6.253333333333334 0 0 1 -1.48 -0.18666666666666668 6.346666666666666 6.346666666666666 0 0 1 -4.773333333333333 -5.586666666666667L3.6933333333333334 21.479999999999997a2.12 2.12 0 0 0 -2.6666666666666665 1.6933333333333334 26.199999999999996 26.199999999999996 0 0 0 -0.3466666666666667 3.0399999999999996Z" fill="#c8ffa1" stroke-width="1"></path>
  <path d="m55.05333333333333 34.44 -6.266666666666667 -1.5733333333333333a6.3999999999999995 6.3999999999999995 0 0 1 -6.306666666666667 1.96 6.346666666666666 6.346666666666666 0 0 1 -10.093333333333334 -1.9066666666666665 6.253333333333334 6.253333333333334 0 0 1 -1.48 -0.18666666666666668 6.346666666666666 6.346666666666666 0 0 1 -4.773333333333333 -5.586666666666667L3.6933333333333334 21.479999999999997a2.12 2.12 0 0 0 -2.6666666666666665 1.6933333333333334 28.706666666666667 28.706666666666667 0 0 0 55.53333333333333 14.013333333333332 2.1466666666666665 2.1466666666666665 0 0 0 -1.5066666666666664 -2.7466666666666666Z" fill="none" stroke="#45413c" stroke-linecap="round" stroke-linejoin="round" stroke-width="1"></path>
  <path d="M48.78666666666667 32.86666666666666a6.3999999999999995 6.3999999999999995 0 0 1 -6.306666666666667 1.96 6.346666666666666 6.346666666666666 0 0 1 -10.093333333333334 -1.9066666666666665 6.253333333333334 6.253333333333334 0 0 1 -1.48 -0.18666666666666668 6.346666666666666 6.346666666666666 0 0 1 -4.773333333333333 -5.586666666666667l-20.973333333333333 -5.333333333333333a24.986666666666665 24.986666666666665 0 1 0 48.44 12.266666666666666Z" fill="#fffacf" stroke-width="1"></path>
  <path d="M51.74666666666667 39.093333333333334a26.16 26.16 0 0 0 1.853333333333333 -5.013333333333333l-4.813333333333333 -1.2133333333333334a6.3999999999999995 6.3999999999999995 0 0 1 -6.306666666666667 1.96 6.186666666666666 6.186666666666666 0 0 1 -2.253333333333333 1.3333333333333333Z" fill="#ffffff" stroke-width="1"></path>
  <path d="M33.42666666666666 34.46666666666667a6.666666666666666 6.666666666666666 0 0 1 -1.04 -1.5466666666666664 6.253333333333334 6.253333333333334 0 0 1 -1.48 -0.18666666666666668 6.346666666666666 6.346666666666666 0 0 1 -4.773333333333333 -5.586666666666667l-20.973333333333333 -5.333333333333333a24.346666666666668 24.346666666666668 0 0 0 -0.7466666666666667 5.333333333333333Z" fill="#ffffff" stroke-width="1"></path>
  <path d="M48.78666666666667 32.86666666666666a6.3999999999999995 6.3999999999999995 0 0 1 -6.306666666666667 1.96 6.346666666666666 6.346666666666666 0 0 1 -10.093333333333334 -1.9066666666666665 6.253333333333334 6.253333333333334 0 0 1 -1.48 -0.18666666666666668 6.346666666666666 6.346666666666666 0 0 1 -4.773333333333333 -5.586666666666667l-20.973333333333333 -5.333333333333333a24.986666666666665 24.986666666666665 0 1 0 48.44 12.266666666666666Z" fill="none" stroke="#45413c" stroke-linecap="round" stroke-linejoin="round" stroke-width="1"></path>
  <path d="M48.78666666666667 32.86666666666666a6.3999999999999995 6.3999999999999995 0 0 1 -6.306666666666667 1.96 6.346666666666666 6.346666666666666 0 0 1 -10.093333333333334 -1.9066666666666665 6.253333333333334 6.253333333333334 0 0 1 -1.48 -0.18666666666666668 6.346666666666666 6.346666666666666 0 0 1 -4.773333333333333 -5.586666666666667L8.239999999999998 22.666666666666664a21.8 21.8 0 0 0 42.266666666666666 10.666666666666666Z" fill="#ff87af" stroke-width="1"></path>
  <path d="M48.54666666666666 38.28A22.066666666666666 22.066666666666666 0 0 0 50.50666666666667 33.33333333333333l-1.72 -0.42666666666666664a6.3999999999999995 6.3999999999999995 0 0 1 -6.306666666666667 1.96 6.186666666666666 6.186666666666666 0 0 1 -2.253333333333333 1.3333333333333333Z" fill="#ffb0ca" stroke-width="1"></path>
  <path d="M33.42666666666666 34.46666666666667a6.666666666666666 6.666666666666666 0 0 1 -1.04 -1.5466666666666664 6.253333333333334 6.253333333333334 0 0 1 -1.48 -0.18666666666666668 6.346666666666666 6.346666666666666 0 0 1 -4.773333333333333 -5.586666666666667L8.239999999999998 22.666666666666664a22.839999999999996 22.839999999999996 0 0 0 -0.6399999999999999 5.333333333333333Z" fill="#ffb0ca" stroke-width="1"></path>
  <path d="M48.78666666666667 32.86666666666666a6.3999999999999995 6.3999999999999995 0 0 1 -6.306666666666667 1.96 6.346666666666666 6.346666666666666 0 0 1 -10.093333333333334 -1.9066666666666665 6.253333333333334 6.253333333333334 0 0 1 -1.48 -0.18666666666666668 6.346666666666666 6.346666666666666 0 0 1 -4.773333333333333 -5.586666666666667L8.239999999999998 22.666666666666664a21.8 21.8 0 0 0 42.266666666666666 10.666666666666666Z" fill="none" stroke="#45413c" stroke-linecap="round" stroke-linejoin="round" stroke-width="1"></path>
  <path d="M12.093333333333334 29.08a1.0666666666666667 1.0666666666666667 0 1 0 2.0666666666666664 0.52l0.26666666666666666 -1.0266666666666666a1.08 1.08 0 0 0 -0.7733333333333332 -1.3333333333333333 1.0666666666666667 1.0666666666666667 0 0 0 -1.3333333333333333 0.7733333333333332Z" fill="#ff6196" stroke="#45413c" stroke-linecap="round" stroke-linejoin="round" stroke-width="1"></path>
  <path d="M16 35.53333333333333a1.0666666666666667 1.0666666666666667 0 0 0 2.0666666666666664 0.52l0.2533333333333333 -1.0266666666666666a1.0533333333333332 1.0533333333333332 0 1 0 -2.0533333333333332 -0.52Z" fill="#ff6196" stroke="#45413c" stroke-linecap="round" stroke-linejoin="round" stroke-width="1"></path>
  <path d="M22.4 31.68a1.08 1.08 0 0 0 0.7733333333333332 1.3333333333333333 1.0666666666666667 1.0666666666666667 0 0 0 1.3333333333333333 -0.7733333333333332l0.26666666666666666 -1.0266666666666666a1.08 1.08 0 0 0 -0.7733333333333332 -1.3333333333333333 1.0666666666666667 1.0666666666666667 0 0 0 -1.3333333333333333 0.7866666666666666Z" fill="#ff6196" stroke="#45413c" stroke-linecap="round" stroke-linejoin="round" stroke-width="1"></path>
  <path d="M37.599999999999994 41a1.0666666666666667 1.0666666666666667 0 0 1 -2.0666666666666664 -0.52l0.26666666666666666 -1.0266666666666666a1.0533333333333332 1.0533333333333332 0 0 1 1.3333333333333333 -0.7733333333333332 1.0666666666666667 1.0666666666666667 0 0 1 0.7733333333333332 1.3333333333333333Z" fill="#ff6196" stroke="#45413c" stroke-linecap="round" stroke-linejoin="round" stroke-width="1"></path>
  <path d="M19.799999999999997 41.986666666666665a1.0666666666666667 1.0666666666666667 0 1 0 2.0666666666666664 0.52l0.2533333333333333 -1.0266666666666666a1.0533333333333332 1.0533333333333332 0 1 0 -2.0533333333333332 -0.52Z" fill="#ff6196" stroke="#45413c" stroke-linecap="round" stroke-linejoin="round" stroke-width="1"></path>
  <path d="M31.146666666666665 44.85333333333333a1.0666666666666667 1.0666666666666667 0 0 1 -2.0666666666666664 -0.52l0.2533333333333333 -1.0266666666666666a1.0666666666666667 1.0666666666666667 0 1 1 2.0666666666666664 0.52Z" fill="#ff6196" stroke="#45413c" stroke-linecap="round" stroke-linejoin="round" stroke-width="1"></path>
  <path d="M25.746666666666663 38.013333333333335a1.0533333333333332 1.0533333333333332 0 0 0 2.0533333333333332 0.52l0.26666666666666666 -1.04a1.0666666666666667 1.0666666666666667 0 0 0 -0.7733333333333332 -1.3333333333333333 1.08 1.08 0 0 0 -1.3333333333333333 0.7733333333333332Z" fill="#ff6196" stroke="#45413c" stroke-linecap="round" stroke-linejoin="round" stroke-width="1"></path>
  <path d="M47.57333333333333 11a1.9333333333333331 1.9333333333333331 0 0 0 -0.7999999999999999 -2.5733333333333333 1.9466666666666665 1.9466666666666665 0 0 0 -2.293333333333333 1.4266666666666667 24 24 0 0 0 -0.37333333333333335 4.92 0.30666666666666664 0.30666666666666664 0 0 0 0.5599999999999999 0.21333333333333332 24.64 24.64 0 0 0 2.9066666666666667 -3.986666666666667Z" fill="#ffffff" stroke-width="1"></path>
  <path d="M46.28 9.76a1.72 1.72 0 0 0 -1.9466666666666665 0.7999999999999999 3.2133333333333334 3.2133333333333334 0 0 1 0.14666666666666667 -0.7066666666666667 1.9466666666666665 1.9466666666666665 0 0 1 2.293333333333333 -1.4266666666666667 1.9333333333333331 1.9333333333333331 0 0 1 0.7999999999999999 2.5733333333333333 3.6933333333333334 3.6933333333333334 0 0 1 -0.3333333333333333 0.6266666666666666 1.7466666666666666 1.7466666666666666 0 0 0 -0.96 -1.8666666666666665Z" fill="#ffe5ee" stroke-width="1"></path>
  <path d="M47.57333333333333 11a1.9333333333333331 1.9333333333333331 0 0 0 -0.7999999999999999 -2.5733333333333333 1.9466666666666665 1.9466666666666665 0 0 0 -2.293333333333333 1.4266666666666667 24 24 0 0 0 -0.37333333333333335 4.92 0.30666666666666664 0.30666666666666664 0 0 0 0.5599999999999999 0.21333333333333332 24.64 24.64 0 0 0 2.9066666666666667 -3.986666666666667Z" fill="none" stroke="#45413c" stroke-linecap="round" stroke-linejoin="round" stroke-width="1"></path>
  <path d="M56.28 17.159999999999997a1.9333333333333331 1.9333333333333331 0 0 0 0.24 -2.6666666666666665 1.9333333333333331 1.9333333333333331 0 0 0 -2.6666666666666665 0.44 24 24 0 0 0 -2.2266666666666666 4.3999999999999995c-0.13333333333333333 0.31999999999999995 0.12 0.5733333333333333 0.44 0.39999999999999997a23.77333333333333 23.77333333333333 0 0 0 4.213333333333333 -2.5733333333333333Z" fill="#ffffff" stroke-width="1"></path>
  <path d="M55.56 15.52a1.7333333333333334 1.7333333333333334 0 0 0 -2.1066666666666665 0 3.1199999999999997 3.1199999999999997 0 0 1 0.39999999999999997 -0.5866666666666667 1.9333333333333331 1.9333333333333331 0 0 1 2.6666666666666665 -0.44 1.9333333333333331 1.9333333333333331 0 0 1 -0.24 2.6666666666666665 3.1333333333333333 3.1333333333333333 0 0 1 -0.5599999999999999 0.45333333333333337 1.7333333333333334 1.7333333333333334 0 0 0 -0.15999999999999998 -2.0933333333333333Z" fill="#ffe5ee" stroke-width="1"></path>
  <path d="M56.28 17.159999999999997a1.9333333333333331 1.9333333333333331 0 0 0 0.24 -2.6666666666666665 1.9333333333333331 1.9333333333333331 0 0 0 -2.6666666666666665 0.44 24 24 0 0 0 -2.2266666666666666 4.3999999999999995c-0.13333333333333333 0.31999999999999995 0.12 0.5733333333333333 0.44 0.39999999999999997a23.77333333333333 23.77333333333333 0 0 0 4.213333333333333 -2.5733333333333333Z" fill="none" stroke="#45413c" stroke-linecap="round" stroke-linejoin="round" stroke-width="1"></path>
  <path d="M61.959999999999994 26.186666666666667a1.92 1.92 0 0 0 1.2533333333333332 -2.3866666666666667 1.9333333333333331 1.9333333333333331 0 0 0 -2.6666666666666665 -0.6133333333333333 24 24 0 0 0 -3.7466666666666666 3.2133333333333334 0.30666666666666664 0.30666666666666664 0 0 0 0.24 0.5466666666666666 25.066666666666666 25.066666666666666 0 0 0 4.92 -0.7599999999999999Z" fill="#ffffff" stroke-width="1"></path>
  <path d="M61.919999999999995 24.386666666666663a1.7333333333333334 1.7333333333333334 0 0 0 -1.92 -0.8133333333333332 3.1333333333333333 3.1333333333333333 0 0 1 0.6 -0.3866666666666666 1.9333333333333331 1.9333333333333331 0 0 1 2.6666666666666665 0.6133333333333333 1.92 1.92 0 0 1 -1.2533333333333332 2.3866666666666667 3.546666666666667 3.546666666666667 0 0 1 -0.6799999999999999 0.19999999999999998 1.72 1.72 0 0 0 0.5866666666666667 -2Z" fill="#ffe5ee" stroke-width="1"></path>
  <path d="M61.959999999999994 26.186666666666667a1.92 1.92 0 0 0 1.2533333333333332 -2.3866666666666667 1.9333333333333331 1.9333333333333331 0 0 0 -2.6666666666666665 -0.6133333333333333 24 24 0 0 0 -3.7466666666666666 3.2133333333333334 0.30666666666666664 0.30666666666666664 0 0 0 0.24 0.5466666666666666 25.066666666666666 25.066666666666666 0 0 0 4.92 -0.7599999999999999Z" fill="none" stroke="#45413c" stroke-linecap="round" stroke-linejoin="round" stroke-width="1"></path>
  <path d="M34.45333333333333 9.093333333333334A1.9333333333333331 1.9333333333333331 0 0 1 36 6.893333333333333c0.9066666666666667 0 1.68 0.8933333333333333 1.7333333333333334 2.0666666666666664a25.826666666666668 25.826666666666668 0 0 1 -1.1733333333333333 4.8 0.30666666666666664 0.30666666666666664 0 0 1 -0.6 0 24.53333333333333 24.53333333333333 0 0 1 -1.5066666666666664 -4.666666666666666Z" fill="#ffffff" stroke-width="1"></path>
  <path d="M36.08 8.306666666666667a1.76 1.76 0 0 1 1.5999999999999999 1.3333333333333333 4 4 0 0 0 0.07999999999999999 -0.7066666666666667c0 -1.1733333333333333 -0.8266666666666667 -2.1066666666666665 -1.7333333333333334 -2.0666666666666664a1.9333333333333331 1.9333333333333331 0 0 0 -1.5733333333333333 2.1999999999999997 2.92 2.92 0 0 0 0.13333333333333333 0.6933333333333334 1.7333333333333334 1.7333333333333334 0 0 1 1.4933333333333334 -1.4533333333333334Z" fill="#ffe5ee" stroke-width="1"></path>
  <path d="M34.45333333333333 9.093333333333334A1.9333333333333331 1.9333333333333331 0 0 1 36 6.893333333333333c0.9066666666666667 0 1.68 0.8933333333333333 1.7333333333333334 2.0666666666666664a25.826666666666668 25.826666666666668 0 0 1 -1.1733333333333333 4.8 0.30666666666666664 0.30666666666666664 0 0 1 -0.6 0 24.53333333333333 24.53333333333333 0 0 1 -1.5066666666666664 -4.666666666666666Z" fill="none" stroke="#45413c" stroke-linecap="round" stroke-linejoin="round" stroke-width="1"></path>
  <path d="M24.266666666666666 12.239999999999998a1.9466666666666665 1.9466666666666665 0 0 1 0.6 -2.6666666666666665 1.96 1.96 0 0 1 2.4 1.2533333333333332A24.493333333333332 24.493333333333332 0 0 1 28 15.733333333333334a0.29333333333333333 0.29333333333333333 0 0 1 -0.5333333333333333 0.2533333333333333 24.626666666666665 24.626666666666665 0 0 1 -3.1999999999999997 -3.7466666666666666Z" fill="#ffffff" stroke-width="1"></path>
  <path d="M25.46666666666667 10.893333333333333a1.7333333333333334 1.7333333333333334 0 0 1 2 0.6533333333333333 4.626666666666667 4.626666666666667 0 0 0 -0.19999999999999998 -0.6933333333333334 1.96 1.96 0 0 0 -2.4 -1.2533333333333332 1.9466666666666665 1.9466666666666665 0 0 0 -0.6 2.6666666666666665 3.6133333333333333 3.6133333333333333 0 0 0 0.3866666666666666 0.6 1.7466666666666666 1.7466666666666666 0 0 1 0.8133333333333332 -1.9733333333333332Z" fill="#ffe5ee" stroke-width="1"></path>
  <path d="M24.266666666666666 12.239999999999998a1.9466666666666665 1.9466666666666665 0 0 1 0.6 -2.6666666666666665 1.96 1.96 0 0 1 2.4 1.2533333333333332A24.493333333333332 24.493333333333332 0 0 1 28 15.733333333333334a0.29333333333333333 0.29333333333333333 0 0 1 -0.5333333333333333 0.2533333333333333 24.626666666666665 24.626666666666665 0 0 1 -3.1999999999999997 -3.7466666666666666Z" fill="none" stroke="#45413c" stroke-linecap="round" stroke-linejoin="round" stroke-width="1"></path>
</svg>