<svg xmlns="http://www.w3.org/2000/svg" viewBox="0 0 512 512" style="enable-background:new 0 0 512 512" xml:space="preserve"><circle style="fill:#ac60fc" cx="256" cy="256" r="256"/><path style="fill:#dd1b1b" d="M348.148 140.344H164.852v-11.352c0-50.616 41.032-91.648 91.648-91.648s91.648 41.032 91.648 91.648v11.352z"/><path style="fill:#c91b1b" d="M348.15 128.718v11.35h-183.3v-11.35c0-46.38 34.46-84.73 79.19-90.8-11.43 15.28-18.19 34.25-18.19 54.8 0 6.268 5.082 11.35 11.35 11.35h107.59a91.516 91.516 0 0 1 3.36 24.65z"/><path style="fill:#4b4c9b" d="M356.232 137.964H156.768a8.268 8.268 0 0 0-8.268 8.268v25.998h216v-25.998a8.268 8.268 0 0 0-8.268-8.268z"/><path style="fill:#424584" d="M148.5 154.828h216v17.13h-216z"/><path style="fill:#f8d572" d="M480.26 186.93v156.58c0 8.11-6.58 14.69-14.69 14.69H50.44c-8.13 0-14.7-6.57-14.7-14.69V186.93c0-4.57 2.08-8.65 5.34-11.34.55-.45 1.13-.86 1.73-1.23.21-.12.41-.24.62-.35.35-.19.71-.37 1.08-.53.12-.06.25-.12.39-.17.38-.15.77-.29 1.16-.41 1.38-.43 2.85-.66 4.37-.66h51.6l.02-.01h311.9l.02.01h51.6c8.11 0 14.69 6.57 14.69 14.69z"/><path style="fill:#f8c952" d="M160.28 333.83c-.12 3.33-.17 6.68-.17 10.03 0 4.81.11 9.59.34 14.34H50.44c-8.13 0-14.7-6.57-14.7-14.69V186.93c0-4.57 2.08-8.65 5.34-11.34.55-.45 1.13-.86 1.73-1.23.21-.12.41-.24.62-.35.35-.19.71-.37 1.08-.53.12-.06.25-.12.39-.17.37-.15.76-.29 1.16-.41 1.38-.44 2.85-.67 4.38-.67H214.1a298.62 298.62 0 0 0-15.31 24.28c-23.09 40.79-36.88 87.51-38.51 137.32z"/><path style="fill:#fe4583" d="M441.126 333.833H74.876a9.055 9.055 0 0 1-9.055-9.055V205.571a9.055 9.055 0 0 1 9.055-9.055h366.251a9.055 9.055 0 0 1 9.055 9.055v119.208a9.056 9.056 0 0 1-9.056 9.054z"/><path style="fill:#ea2d88" d="M200.694 196.511c-23.084 40.787-36.876 87.512-38.503 137.323H76.785a9.058 9.058 0 0 1-9.058-9.058V205.568a9.058 9.058 0 0 1 9.058-9.058h123.909z"/><path style="fill:#fff" d="M243.273 255.126c0 .14-4.346 9.557-13.038 28.248-8.832 19.067-13.879 29.791-15.141 32.175-.421.841-.678 1.309-.771 1.401-.187.235-.631.445-1.332.631-1.168.281-4.486.421-9.954.421-5.094 0-8.201-.14-9.323-.421-.935-.233-1.496-.421-1.682-.56-.187-.14-.491-.584-.911-1.333-.281-.514-1.612-3.808-3.996-9.883l-7.64-19.487-7.781 19.697c-.795 2.243-2.103 5.468-3.925 9.673-.468.795-.795 1.274-.981 1.437-.187.164-.725.316-1.612.456-1.589.281-4.651.421-9.183.421-5.607 0-8.972-.14-10.094-.421-.795-.186-1.449-.864-1.963-2.032-18.319-37.618-27.478-57.76-27.478-60.423 0-3.738.128-9.334.386-16.789.256-7.453.386-13.049.386-16.788 0-1.542.467-2.314 1.402-2.314 2.664 0 6.694.118 12.092.351 5.397.234 9.451.35 12.161.35 1.074 0 1.612.444 1.612 1.332 0 3.739-.175 9.382-.526 16.928-.35 7.548-.525 13.191-.525 16.929 0 1.401 1.705 5.865 5.117 13.388 3.084 6.73 5.327 11.286 6.73 13.669.701 1.215 1.167 1.822 1.402 1.822.373 0 1.332-2.243 2.874-6.729 4.392-12.57 6.635-20 6.729-22.29.186-4.299.21-9.767.07-16.403-.14-9.579-.211-15.071-.211-16.473 0-.887.07-1.413.211-1.578.14-.163.654-.316 1.542-.455 2.383-.281 6.495-.421 12.337-.421 8.925 0 13.389.63 13.389 1.893 0 3.131-.118 7.991-.351 14.58-.234 6.403-.327 11.263-.28 14.581v3.575c0 2.383 2.406 9.978 7.22 22.781 1.635 4.44 2.617 6.658 2.944 6.658.233 0 .701-.606 1.402-1.822 1.308-2.289 3.411-6.822 6.309-13.599 3.224-7.383 4.837-11.776 4.837-13.178 0-3.785-.175-9.452-.525-16.999-.351-7.546-.526-13.189-.526-16.928 0-.841.537-1.262 1.612-1.262 2.757 0 6.904-.116 12.442-.35 5.538-.233 9.684-.351 12.442-.351.887 0 1.332.936 1.332 2.804 0 3.692.128 9.217.386 16.578.254 7.362.383 12.865.383 16.51zM282.037 265.78c0 5.514.139 13.809.42 24.884.281 11.075.42 19.37.42 24.884 0 .935-.209 1.519-.631 1.752-.094.048-.701.14-1.821.281-3.038.373-7.105.56-12.196.56-6.824 0-11.169-.187-13.038-.56-1.356-.281-2.033-1.004-2.033-2.173 0 .747.21-3.365.63-12.338.841-18.925 1.261-31.355 1.261-37.29 0-5-.163-12.5-.49-22.502-.327-10-.491-17.5-.491-22.501 0-1.027.536-1.542 1.611-1.542 1.449 0 3.634.07 6.554.211s5.105.211 6.554.211 3.586-.07 6.415-.211c2.827-.14 4.966-.211 6.415-.211 1.353 0 2.032.515 2.032 1.542 0 5.001-.27 12.501-.807 22.501-.538 10.003-.805 17.502-.805 22.502zM390.124 221.409c0 5.327-.223 13.33-.666 24.008-.445 10.679-.666 18.705-.666 24.077v46.193c0 1.262-.678 1.893-2.033 1.893-1.122 0-2.816.046-5.082.14-2.267.092-3.96.14-5.082.14-1.215 0-3.038-.095-5.467-.281-2.431-.186-4.253-.281-5.467-.281-.842 0-1.847-.77-3.015-2.313-3.364-4.531-10.935-14.58-22.712-30.141-3.224-4.345-8.13-10.747-14.719-19.206-.188-.281-.539-.56-1.052-.841-.374.327-.56.841-.56 1.542 0 5.421.151 13.553.456 24.394.302 10.842.455 18.973.455 24.394 0 1.636-.63 2.453-1.892 2.453h-24.253c-1.357 0-2.033-.724-2.033-2.173 0-5.047.246-12.664.737-22.852.491-10.187.735-17.828.735-22.922 0-5.372-.222-13.411-.666-24.113-.444-10.7-.666-18.715-.666-24.043 0-1.028.912-1.542 2.734-1.542 2.709 0 6.051-.186 10.024-.561.935-.093 2.78-.397 5.538-.911 2.336-.421 4.181-.631 5.538-.631.56 0 1.424.795 2.594 2.383l26.145 35.819c2.336 3.225 5.864 7.946 10.585 14.16 1.167 1.449 2.173 2.173 3.014 2.173.607 0 .912-1.822.912-5.467 0-4.907-.27-12.29-.806-22.152-.539-9.859-.806-17.266-.806-22.22 0-1.728.491-2.594 1.472-2.594 2.804 0 7.033-.116 12.687-.35 5.654-.233 9.884-.351 12.688-.351.884.003 1.329.728 1.329 2.176z"/><path style="fill:#f8c952" d="m259.173 388.474 11.212 34.508a3.17 3.17 0 0 0 3.016 2.191h36.284c3.072 0 4.349 3.931 1.864 5.737l-29.354 21.327a3.172 3.172 0 0 0-1.152 3.546l11.212 34.508c.949 2.922-2.395 5.351-4.88 3.546l-29.354-21.327a3.17 3.17 0 0 0-3.728 0l-29.354 21.327c-2.485 1.806-5.829-.624-4.88-3.546l11.212-34.508a3.172 3.172 0 0 0-1.152-3.546l-29.354-21.327c-2.485-1.806-1.208-5.737 1.864-5.737h36.284a3.172 3.172 0 0 0 3.016-2.191l11.212-34.508c.949-2.922 5.083-2.922 6.032 0zM387.908 377.517l7.062 21.733a1.996 1.996 0 0 0 1.899 1.38h22.852c1.935 0 2.739 2.476 1.174 3.613l-18.487 13.432c-.7.509-.993 1.41-.726 2.233l7.062 21.733c.598 1.84-1.508 3.37-3.073 2.233l-18.487-13.432a1.996 1.996 0 0 0-2.348 0l-18.487 13.432c-1.565 1.137-3.671-.393-3.073-2.233l7.062-21.733a1.998 1.998 0 0 0-.726-2.233l-18.487-13.432c-1.565-1.137-.761-3.613 1.174-3.613h22.852c.865 0 1.632-.557 1.899-1.38l7.062-21.733c.595-1.84 3.198-1.84 3.796 0zM123.908 377.517l7.062 21.733a1.996 1.996 0 0 0 1.899 1.38h22.852c1.935 0 2.739 2.476 1.174 3.613l-18.487 13.432c-.7.509-.993 1.41-.726 2.233l7.062 21.733c.598 1.84-1.508 3.37-3.073 2.233l-18.487-13.432a1.996 1.996 0 0 0-2.348 0l-18.487 13.432c-1.565 1.137-3.671-.393-3.073-2.233l7.062-21.733a1.998 1.998 0 0 0-.726-2.233l-18.487-13.432c-1.565-1.137-.761-3.613 1.174-3.613h22.852c.865 0 1.632-.557 1.899-1.38l7.062-21.733c.595-1.84 3.198-1.84 3.796 0z"/><circle style="fill:#e54c4c" cx="287.667" cy="74.327" r="14.667"/><path style="fill:#f8d572" d="M348.826 75.334c-3.905-3.905-3.905-10.237 0-14.142l17.206-17.206c3.905-3.905 10.237-3.905 14.142 0 3.905 3.905 3.905 10.237 0 14.142l-17.206 17.206c-3.905 3.905-10.237 3.905-14.142 0zM367.957 101.667c0-5.523 4.477-10 10-10h24.333c5.523 0 10 4.477 10 10s-4.477 10-10 10h-24.333c-5.523 0-10-4.477-10-10zM164.479 75.334c3.905-3.905 3.905-10.237 0-14.142l-17.206-17.206c-3.905-3.905-10.237-3.905-14.142 0-3.905 3.905-3.905 10.237 0 14.142l17.206 17.206c3.905 3.905 10.236 3.905 14.142 0zM145.347 101.667c0-5.523-4.477-10-10-10h-24.333c-5.523 0-10 4.477-10 10s4.477 10 10 10h24.333c5.523 0 10-4.477 10-10z"/></svg>